<svg version="1.1" id="Layer_1" xmlns="http://www.w3.org/2000/svg" x="0" y="0" viewBox="0 0 512 512" style="enable-background:new 0 0 512 512" xml:space="preserve"><style>.st2{fill:#231f20}</style><path id="XMLID_428_" style="fill:#fff" d="M1.75 94.2h508.36v323.64H1.89z"/><path id="XMLID_427_" d="M508.36 274.21s-138.91 97.95-393.3 141.88h393.3V274.21z" style="fill:#f48120"/><path id="XMLID_2_" class="st2" d="M510.11 92.31H0v327.41h512V92.18h-1.89v.13zm-1.75 3.64v320H3.77v-320h504.59z"/><path class="st2" d="M44.73 192.42H23.58v74.11h21.15c11.18 0 19.27-2.69 26.41-8.49 8.49-7.01 13.47-17.52 13.47-28.43-.13-21.96-16.43-37.19-39.88-37.19zm16.98 55.78c-4.58 4.04-10.37 5.93-19.81 5.93H38v-49.04h3.91c9.3 0 14.96 1.62 19.81 5.93 4.99 4.45 7.95 11.32 7.95 18.46-.01 7.14-2.98 14.28-7.96 18.72z"/><path id="XMLID_422_" class="st2" d="M91.22 192.42h14.42v74.11H91.22z"/><path id="XMLID_421_" class="st2" d="M140.93 220.85c-8.62-3.23-11.18-5.39-11.18-9.3 0-4.72 4.58-8.22 10.78-8.22 4.31 0 7.95 1.75 11.59 6.06l7.55-9.84c-6.2-5.39-13.61-8.22-21.83-8.22-13.07 0-23.17 9.16-23.17 21.29 0 10.24 4.72 15.49 18.19 20.35 5.66 2.02 8.49 3.37 9.97 4.18 2.83 1.89 4.31 4.58 4.31 7.68 0 6.06-4.72 10.51-11.18 10.51-6.87 0-12.4-3.5-15.76-9.84l-9.3 9.03c6.6 9.84 14.69 14.15 25.6 14.15 14.96 0 25.6-9.97 25.6-24.39.26-11.99-4.73-17.38-21.17-23.44z"/><path id="XMLID_420_" class="st2" d="M166.8 229.61c0 21.83 17.11 38.67 39.07 38.67 6.2 0 11.59-1.21 18.05-4.31v-16.98c-5.79 5.79-10.91 8.08-17.38 8.08-14.55 0-24.93-10.51-24.93-25.6 0-14.28 10.64-25.47 24.25-25.47 6.87 0 12.13 2.43 18.05 8.35v-16.98c-6.33-3.23-11.59-4.58-17.79-4.58-21.67.01-39.32 17.26-39.32 38.82z"/><path id="XMLID_419_" class="st2" d="m338.73 242.27-19.81-49.85h-15.76l31.39 75.99h7.82l31.93-75.99h-15.63z"/><path id="XMLID_418_" class="st2" d="M380.9 266.53h40.96V254h-26.54v-19.94h25.6v-12.54h-25.6v-16.43h26.54v-12.67H380.9z"/><path class="st2" d="M479.12 214.38c0-13.88-9.57-21.83-26.27-21.83h-21.42v74.11h14.42v-29.78h1.89l19.94 29.78h17.79l-23.31-31.26c10.9-2.29 16.96-9.7 16.96-21.02zm-29.1 12.26h-4.18v-22.5h4.45c9.03 0 13.88 3.77 13.88 11.05 0 7.41-4.85 11.45-14.15 11.45z"/><linearGradient id="XMLID_3_" gradientUnits="userSpaceOnUse" x1="288.438" y1="841.335" x2="261.149" y2="798.608" gradientTransform="translate(0 -580)"><stop offset="0" style="stop-color:#f89f20"/><stop offset=".25" style="stop-color:#f79a20"/><stop offset=".533" style="stop-color:#f68d20"/><stop offset=".62" style="stop-color:#f58720"/><stop offset=".723" style="stop-color:#f48120"/><stop offset="1" style="stop-color:#f37521"/></linearGradient><circle id="XMLID_415_" cx="268.26" cy="229.74" r="39.48" style="fill:url(#XMLID_3_)"/><linearGradient id="XMLID_4_" gradientUnits="userSpaceOnUse" x1="284.13" y1="840.76" x2="244.246" y2="762.804" gradientTransform="translate(0 -580)"><stop offset="0" style="stop-color:#f58720"/><stop offset=".359" style="stop-color:#e16f27"/><stop offset=".703" style="stop-color:#d4602c"/><stop offset=".982" style="stop-color:#d05b2e"/></linearGradient><circle id="XMLID_414_" cx="268.26" cy="229.74" r="39.48" style="opacity:.65;fill:url(#XMLID_4_);enable-background:new"/><g id="XMLID_436_"><path class="st2" d="M488.29 195.25c0-1.35-.94-2.02-2.43-2.02h-2.16v6.47h1.62v-2.56l1.89 2.56h1.89l-2.16-2.69c.81-.14 1.35-.82 1.35-1.76zm-2.7.94h-.27v-1.75h.27c.81 0 1.21.27 1.21.81 0 .67-.4.94-1.21.94z"/><path class="st2" d="M486.13 190.8c-3.1 0-5.66 2.56-5.66 5.66s2.56 5.66 5.66 5.66 5.66-2.56 5.66-5.66-2.56-5.66-5.66-5.66zm0 10.38c-2.43 0-4.58-2.02-4.58-4.72 0-2.56 2.02-4.72 4.58-4.72 2.43 0 4.45 2.16 4.45 4.72 0 2.56-2.02 4.72-4.45 4.72z"/></g></svg>